# xmcd
#
# Track frame offsets: 
#        150
#        20030
#        33571
#        46308
#        62860
#        78172
#        94699
#        109809
#        126860
#        145153
#        161584
#        178768
#        196025
#        213286
#        228085
#        245187
#
# Disc length: 3481 seconds
#
# Revision: 0
# Processed by: cddbd v1.5.2PL0 Copyright (c) Steve Scherf et al.
# Submitted via: ExactAudioCopy v0.95a5
#
DISCID=da0d9710
DTITLE=蔡琴 - 一致公认的最发烧人声试音天碟 Vol. 4
DYEAR=1900
DGENRE=Blues
TTITLE0=情是什么
TTITLE1=直到那一天
TTITLE2=被遗忘的时光
TTITLE3=想你的时候
TTITLE4=希望还能遇见你
TTITLE5=情迷
TTITLE6=青春湖畔
TTITLE7=未完成的歌
TTITLE8=爱与酒
TTITLE9=永久的城
TTITLE10=如果你要离去
TTITLE11=爱情的喜悦
TTITLE12=想你一整夜
TTITLE13=永远永远不变
TTITLE14=假装我们还相恋
TTITLE15=我怎能离开你
EXTD=
EXTT0=
EXTT1=
EXTT2=
EXTT3=
EXTT4=
EXTT5=
EXTT6=
EXTT7=
EXTT8=
EXTT9=
EXTT10=
EXTT11=
EXTT12=
EXTT13=
EXTT14=
EXTT15=
PLAYORDER=
